<svg width="30" height="31" viewBox="0 0 30 31" fill="none" xmlns="http://www.w3.org/2000/svg">
<path d="M28.5 18.8831C24.3311 20.5707 19.7741 21.5 15 21.5C10.226 21.5 5.66894 20.5707 1.5 18.8831M21 8V5C21 3.34315 19.6569 2 18 2H12C10.3431 2 9 3.34315 9 5V8M15 17H15.015M4.5 29H25.5C27.1569 29 28.5 27.6569 28.5 26V11C28.5 9.34315 27.1569 8 25.5 8H4.5C2.84315 8 1.5 9.34315 1.5 11V26C1.5 27.6569 2.84315 29 4.5 29Z" stroke="white" stroke-width="3" stroke-linecap="round" stroke-linejoin="round"/>
</svg>
