<svg width="18" height="18" viewBox="0 0 18 18" fill="none" xmlns="http://www.w3.org/2000/svg">
<path fill-rule="evenodd" clip-rule="evenodd" d="M1.70666 0.5C1.04024 0.5 0.5 1.04024 0.5 1.70666V16.2933C0.5 16.9597 1.04024 17.5 1.70667 17.5H16.2933C16.9598 17.5 17.5 16.9597 17.5 16.2933V1.70666C17.5 1.04024 16.9598 0.5 16.2933 0.5H1.70666ZM4.31572 5.77936C5.1302 5.77936 5.79047 5.11909 5.79047 4.30461C5.79047 3.49013 5.1302 2.82986 4.31572 2.82986C3.50124 2.82986 2.84097 3.49013 2.84097 4.30461C2.84097 5.11909 3.50124 5.77936 4.31572 5.77936ZM7.14108 6.86924H9.58521V7.98891C9.58521 7.98891 10.2485 6.66241 12.0531 6.66241C13.6628 6.66241 14.9964 7.45543 14.9964 9.87261V14.9698H12.4636V10.4902C12.4636 9.06434 11.7023 8.90751 11.1222 8.90751C9.91833 8.90751 9.71223 9.94593 9.71223 10.6762V14.9698H7.14108V6.86924ZM5.6013 6.86925H3.03015V14.9698H5.6013V6.86925Z" fill="#0C4A6E"/>
</svg>
