<svg width="18" height="18" viewBox="0 0 18 18" fill="none" xmlns="http://www.w3.org/2000/svg">
<path d="M9.00044 0.272705C6.63033 0.272705 6.33289 0.283069 5.402 0.325433C4.47294 0.367978 3.83878 0.515069 3.28389 0.730887C2.7099 0.953796 2.22301 1.25198 1.73793 1.73725C1.25249 2.22234 0.954321 2.70925 0.730691 3.28307C0.514334 3.83816 0.367066 4.47252 0.325249 5.40125C0.283614 6.33216 0.272705 6.6298 0.272705 8.99998C0.272705 11.3702 0.28325 11.6667 0.325431 12.5976C0.368157 13.5267 0.515243 14.1609 0.730873 14.7158C0.953957 15.2898 1.25213 15.7767 1.73739 16.2618C2.22228 16.7472 2.70918 17.0462 3.2828 17.2691C3.83805 17.4849 4.4724 17.632 5.40128 17.6745C6.33216 17.7169 6.62942 17.7272 8.99935 17.7272C11.3696 17.7272 11.6662 17.7169 12.5971 17.6745C13.5261 17.632 14.161 17.4849 14.7163 17.2691C15.2901 17.0462 15.7762 16.7472 16.2611 16.2618C16.7466 15.7767 17.0447 15.2898 17.2684 14.716C17.4829 14.1609 17.6302 13.5265 17.6738 12.5978C17.7156 11.6669 17.7265 11.3702 17.7265 8.99998C17.7265 6.6298 17.7156 6.33234 17.6738 5.40143C17.6302 4.47234 17.4829 3.83816 17.2684 3.28325C17.0447 2.70925 16.7466 2.22234 16.2611 1.73725C15.7757 1.2518 15.2903 0.953614 14.7157 0.730887C14.1594 0.515069 13.5248 0.367978 12.5958 0.325433C11.6649 0.283069 11.3686 0.272705 8.99771 0.272705H9.00044ZM8.21756 1.84543C8.44991 1.84507 8.70918 1.84543 9.00044 1.84543C11.3306 1.84543 11.6067 1.8538 12.5269 1.89561C13.3778 1.93452 13.8396 2.07671 14.1472 2.19616C14.5545 2.35434 14.8448 2.54343 15.1501 2.84889C15.4555 3.15434 15.6446 3.44525 15.8031 3.85252C15.9226 4.1598 16.065 4.62161 16.1037 5.47252C16.1455 6.39252 16.1546 6.66889 16.1546 8.99798C16.1546 11.3271 16.1455 11.6034 16.1037 12.5234C16.0648 13.3743 15.9226 13.8362 15.8031 14.1434C15.645 14.5507 15.4555 14.8407 15.1501 15.146C14.8446 15.4514 14.5546 15.6405 14.1472 15.7987C13.8399 15.9187 13.3778 16.0605 12.5269 16.0994C11.6069 16.1412 11.3306 16.1503 9.00044 16.1503C6.67015 16.1503 6.39397 16.1412 5.474 16.0994C4.62312 16.0602 4.16131 15.918 3.85351 15.7985C3.44625 15.6403 3.15534 15.4513 2.8499 15.1458C2.54445 14.8403 2.35537 14.5502 2.19683 14.1427C2.07738 13.8354 1.93502 13.3736 1.89629 12.5227C1.85448 11.6027 1.84611 11.3263 1.84611 8.9958C1.84611 6.66525 1.85448 6.39034 1.89629 5.47034C1.9352 4.61943 2.07738 4.15761 2.19683 3.84998C2.35501 3.4427 2.54445 3.1518 2.8499 2.84634C3.15534 2.54089 3.44625 2.3518 3.85351 2.19325C4.16113 2.07325 4.62312 1.93143 5.474 1.89234C6.27907 1.85598 6.59106 1.84507 8.21756 1.84325V1.84543ZM13.6588 3.29452C13.0807 3.29452 12.6116 3.76307 12.6116 4.34143C12.6116 4.91961 13.0807 5.3887 13.6588 5.3887C14.237 5.3887 14.7061 4.91961 14.7061 4.34143C14.7061 3.76325 14.237 3.29416 13.6588 3.29416V3.29452ZM9.00044 4.51816C6.52542 4.51816 4.51876 6.52489 4.51876 8.99998C4.51876 11.4751 6.52542 13.4809 9.00044 13.4809C11.4755 13.4809 13.4814 11.4751 13.4814 8.99998C13.4814 6.52489 11.4753 4.51816 9.00026 4.51816H9.00044ZM9.00044 6.09089C10.6069 6.09089 11.9094 7.39325 11.9094 8.99998C11.9094 10.6065 10.6069 11.9091 9.00044 11.9091C7.39376 11.9091 6.09144 10.6065 6.09144 8.99998C6.09144 7.39325 7.39376 6.09089 9.00044 6.09089Z" fill="#0C4A6E"/>
</svg>
