<svg width="19" height="17" viewBox="0 0 19 17" fill="none" xmlns="http://www.w3.org/2000/svg">
<path fill-rule="evenodd" clip-rule="evenodd" d="M16.7716 4.08875C16.7784 4.26364 16.7807 4.43846 16.7807 4.61334C16.7807 9.91554 13.0508 16.0366 6.23024 16.0366C4.13507 16.0366 2.18687 15.3689 0.54541 14.2321C0.835568 14.2639 1.13025 14.2878 1.42945 14.2878C3.16663 14.2878 4.76664 13.6438 6.0358 12.5627C4.41318 12.5388 3.04304 11.3703 2.57049 9.7804C2.79734 9.8281 3.03096 9.85202 3.26987 9.85202C3.60675 9.85202 3.93384 9.80438 4.24736 9.70898C2.54937 9.34331 1.27043 7.72169 1.27043 5.77411C1.27043 5.75026 1.27043 5.74226 1.27043 5.72636C1.77086 6.02049 2.34363 6.20323 2.95183 6.22708C1.9555 5.50369 1.30056 4.27157 1.30056 2.88044C1.30056 2.1491 1.48295 1.45748 1.804 0.861281C3.63237 3.29378 6.3659 4.89161 9.4476 5.05855C9.3843 4.76442 9.35188 4.45448 9.35188 4.14445C9.35188 1.92659 11.0122 0.130005 13.0606 0.130005C14.127 0.130005 15.0902 0.614984 15.7662 1.39402C16.6126 1.21913 17.4054 0.885284 18.1229 0.424223C17.8448 1.36224 17.2577 2.14906 16.4905 2.64192C17.2411 2.54653 17.9571 2.33206 18.6211 2.01409C18.1229 2.81697 17.4959 3.52435 16.7716 4.08875Z" fill="#0C4A6E"/>
</svg>
