<svg width="16" height="16" viewBox="0 0 16 16" fill="none" xmlns="http://www.w3.org/2000/svg">
<path d="M5.98981 13.2589C7.32481 13.2589 8.40704 12.3032 8.40704 10.8417V0H11.306C11.1434 1.97723 13.1089 3.88718 15.2766 3.8435V6.56947C13.4228 6.56947 11.8464 5.78561 11.2977 5.35059V10.8417C11.2977 13.2589 9.39614 16 5.98981 16C2.58348 16 0.723389 13.2589 0.723389 10.8417C0.723389 7.43001 4.33383 5.45136 6.72509 5.93497V8.71154C6.6048 8.66898 6.29457 8.60606 6.03034 8.60606C4.68425 8.55644 3.57259 9.6482 3.57259 10.8417C3.57259 12.1767 4.65482 13.2589 5.98981 13.2589Z" fill="#0C4A6E"/>
</svg>
